<svg height='300px' width='300px'  fill="#0080FF" xmlns:dc="http://purl.org/dc/elements/1.1/" xmlns:cc="http://creativecommons.org/ns#" xmlns:rdf="http://www.w3.org/1999/02/22-rdf-syntax-ns#" xmlns:svg="http://www.w3.org/2000/svg" xmlns="http://www.w3.org/2000/svg" xmlns:sodipodi="http://sodipodi.sourceforge.net/DTD/sodipodi-0.dtd" xmlns:inkscape="http://www.inkscape.org/namespaces/inkscape" version="1.1" x="0px" y="0px" viewBox="0 0 100 100"><g transform="translate(0,-952.36205)"><path style="text-indent:0;text-transform:none;direction:ltr;block-progression:tb;baseline-shift:baseline;color:#000000;enable-background:accumulate;" d="m 49.993379,961.53798 c -13.8118,0 -25.05,11.2489 -25.05,25.0597 0,2.8744 1.2838,6.2058 3.1197,10.1578 1.836,3.95192 4.2965,8.40612 6.8972,12.85712 5.2014,8.9021 11.006,17.8682 13.2669,22.1234 a 2.000005,2.000005 0 0 0 3.5312,0 c 2.2667,-4.2571 8.0739,-13.2225 13.2766,-22.1247 2.6014,-4.451 5.061999,-8.9054 6.898099,-12.85742 1.8362,-3.952 3.12,-7.2834 3.12,-10.1578 0,-13.8108 -11.238599,-25.0597 -25.059699,-25.0597 z m 0,3.9994 c 11.659,0 21.059999,9.4111 21.059999,21.0603 0,1.4706 -1.0036,4.7191 -2.747499,8.4725 -1.7438,3.7533 -4.1554,8.12952 -6.724,12.52472 -4.1518,7.1038 -8.6842,14.205 -11.5872,19.1408 -2.9001,-4.9366 -7.4303,-12.0369 -11.5809,-19.1405 -2.5681,-4.3952 -4.9795,-8.77172 -6.7232,-12.52502 -1.7437,-3.7534 -2.7475,-7.0019 -2.7475,-8.4725 0,-11.6492 9.4022,-21.0603 21.0503,-21.0603 z" fill="#0080FF" fill-opacity="1" fill-rule="evenodd" stroke="none" marker="none" visibility="visible" display="inline" overflow="visible"></path><path style="text-indent:0;text-transform:none;direction:ltr;block-progression:tb;baseline-shift:baseline;color:#000000;enable-background:accumulate;" d="m 49.993379,969.80798 c -8.8406,0 -16.06,7.2087 -16.06,16.0597 0,8.851 7.2194,16.05972 16.06,16.05972 8.8493,0 16.0697,-7.20872 16.0697,-16.05972 0,-8.851 -7.2204,-16.0597 -16.0697,-16.0597 z m 0,3.9994 c 6.6908,0 12.07,5.3713 12.07,12.0603 0,6.689 -5.3792,12.0603 -12.07,12.0603 -6.6793,0 -12.0603,-5.3713 -12.0603,-12.0603 0,-6.689 5.381,-12.0603 12.0603,-12.0603 z" fill="#0080FF" fill-opacity="1" fill-rule="evenodd" stroke="none" marker="none" visibility="visible" display="inline" overflow="visible"></path><path style="text-indent:0;text-transform:none;direction:ltr;block-progression:tb;baseline-shift:baseline;color:#000000;enable-background:accumulate;" d="m 25.578079,1022.0001 a 2.000005,2.000005 0 0 0 -1.5,0.6562 l -15.5625004,17.1876 a 2.000005,2.000005 0 0 0 1.4688001,3.3437 l 39.8437003,0 12,0 0.1875,0 27.968799,0 a 2.000005,2.000005 0 0 0 1.5,-3.3437 l -15.5625,-17.1876 a 2.000005,2.000005 0 0 0 -1.5,-0.6562 l -13.031299,0 a 2.000005,2.000005 0 1 0 0,4 l 12.156299,0 11.9375,13.1875 -23.499999,0 -0.1563,0 -12.0312,0 -35.2813,0 11.9375,-13.1875 12.125,0 a 2.000005,2.000005 0 1 0 0,-4 l -13,0 z" fill="#0080FF" fill-opacity="1" fill-rule="evenodd" stroke="none" marker="none" visibility="visible" display="inline" overflow="visible"></path></g></svg>