<svg height='300px' width='300px'  fill="#0080FF" xmlns="http://www.w3.org/2000/svg" xmlns:xlink="http://www.w3.org/1999/xlink" version="1.1" x="0px" y="0px" viewBox="0 0 100 100" enable-background="new 0 0 100 100" xml:space="preserve"><g><path fill="#0080FF" d="M26.2,72h7.7c1.8,0,3.2-1.4,3.2-3.2V16.7c0-1.8-1.4-3.2-3.2-3.2h-7.7c-1.8,0-3.2,1.4-3.2,3.2v52.1   C22.9,70.5,24.4,72,26.2,72z"></path><path fill="#0080FF" d="M90.5,26.8H39.7v41.9c0,3.2-2.6,5.8-5.8,5.8h-4v0.3h0v3.6c0,0.8,0,3.2-5.6,4.2c-3.1,0.5-10.3,0.1-13.7-3.5   c-1.8-1.8-2.3-4.3-1.6-7.4c0.3-0.9,2.2-3.7,4.2-5.1v6.8c0,2.5,2,4.5,4.5,4.5h8.5v-3.4h-0.1c-3.2,0-5.8-2.6-5.8-5.8V26.8h-2.6   c-2.5,0-4.5,2-4.5,4.5v31.3c-4,1.5-7.4,6.6-7.8,8.4c-1.2,5.4,0.7,8.8,2.5,10.7c3.6,3.8,9.6,4.8,13.9,4.8c1.3,0,2.3-0.1,3.2-0.2   c7.5-1.3,8.6-5.5,8.6-7.8v-0.4h57c2.5,0,4.5-2,4.5-4.5V31.3C95,28.8,93,26.8,90.5,26.8z M55.9,71.2c0,0.8-0.6,1.4-1.4,1.4h-5   c-0.8,0-1.4-0.6-1.4-1.4V67c0-0.8,0.6-1.4,1.4-1.4h5c0.8,0,1.4,0.6,1.4,1.4V71.2z M55.9,62.4c0,0.8-0.6,1.4-1.4,1.4h-5   c-0.8,0-1.4-0.6-1.4-1.4v-4.2c0-0.8,0.6-1.4,1.4-1.4h5c0.8,0,1.4,0.6,1.4,1.4V62.4z M55.9,53.4c0,0.8-0.6,1.4-1.4,1.4h-5   c-0.8,0-1.4-0.6-1.4-1.4v-4.2c0-0.8,0.6-1.4,1.4-1.4h5c0.8,0,1.4,0.6,1.4,1.4V53.4z M66.6,71.2c0,0.8-0.6,1.4-1.4,1.4h-5   c-0.8,0-1.4-0.6-1.4-1.4V67c0-0.8,0.6-1.4,1.4-1.4h5c0.8,0,1.4,0.6,1.4,1.4V71.2z M66.6,62.4c0,0.8-0.6,1.4-1.4,1.4h-5   c-0.8,0-1.4-0.6-1.4-1.4v-4.2c0-0.8,0.6-1.4,1.4-1.4h5c0.8,0,1.4,0.6,1.4,1.4V62.4z M66.6,53.4c0,0.8-0.6,1.4-1.4,1.4h-5   c-0.8,0-1.4-0.6-1.4-1.4v-4.2c0-0.8,0.6-1.4,1.4-1.4h5c0.8,0,1.4,0.6,1.4,1.4V53.4z M77.3,71.2c0,0.8-0.6,1.4-1.4,1.4h-5   c-0.8,0-1.4-0.6-1.4-1.4V67c0-0.8,0.6-1.4,1.4-1.4h5c0.8,0,1.4,0.6,1.4,1.4V71.2z M77.3,62.4c0,0.8-0.6,1.4-1.4,1.4h-5   c-0.8,0-1.4-0.6-1.4-1.4v-4.2c0-0.8,0.6-1.4,1.4-1.4h5c0.8,0,1.4,0.6,1.4,1.4V62.4z M77.3,53.4c0,0.8-0.6,1.4-1.4,1.4h-5   c-0.8,0-1.4-0.6-1.4-1.4v-4.2c0-0.8,0.6-1.4,1.4-1.4h5c0.8,0,1.4,0.6,1.4,1.4V53.4z M79.4,41c0,1.4-1.1,2.5-2.5,2.5H48.2   c-1.4,0-2.5-1.1-2.5-2.5v-6.4c0-1.4,1.1-2.5,2.5-2.5H77c1.4,0,2.5,1.1,2.5,2.5V41z M90.1,71.8c0,0.5-0.4,0.8-0.8,0.8h-4.9   c-0.5,0-0.8-0.4-0.8-0.8V71c0-0.5,0.4-0.8,0.8-0.8h4.9c0.5,0,0.8,0.4,0.8,0.8V71.8z M90.1,65.6c0,0.5-0.4,0.8-0.8,0.8h-4.9   c-0.5,0-0.8-0.4-0.8-0.8v-0.8c0-0.5,0.4-0.8,0.8-0.8h4.9c0.5,0,0.8,0.4,0.8,0.8V65.6z M90.1,59.4c0,0.5-0.4,0.8-0.8,0.8h-4.9   c-0.5,0-0.8-0.4-0.8-0.8v-0.8c0-0.5,0.4-0.8,0.8-0.8h4.9c0.5,0,0.8,0.4,0.8,0.8V59.4z M90.1,53.2c0,0.5-0.4,0.8-0.8,0.8h-4.9   c-0.5,0-0.8-0.4-0.8-0.8v-0.8c0-0.5,0.4-0.8,0.8-0.8h4.9c0.5,0,0.8,0.4,0.8,0.8V53.2z M90.1,47c0,0.5-0.4,0.8-0.8,0.8h-4.9   c-0.5,0-0.8-0.4-0.8-0.8v-0.8c0-0.5,0.4-0.8,0.8-0.8h4.9c0.5,0,0.8,0.4,0.8,0.8V47z M90.1,40.8c0,0.5-0.4,0.8-0.8,0.8h-4.9   c-0.5,0-0.8-0.4-0.8-0.8v-0.8c0-0.5,0.4-0.8,0.8-0.8h4.9c0.5,0,0.8,0.4,0.8,0.8V40.8z M90.1,34.7c0,0.5-0.4,0.8-0.8,0.8h-4.9   c-0.5,0-0.8-0.4-0.8-0.8v-0.8c0-0.5,0.4-0.8,0.8-0.8h4.9c0.5,0,0.8,0.4,0.8,0.8V34.7z"></path></g></svg>