<svg height='300px' width='300px'  fill="#0080FF" xmlns="http://www.w3.org/2000/svg" xmlns:xlink="http://www.w3.org/1999/xlink" version="1.1" x="0px" y="0px" viewBox="0 0 30.552 29.635" style="enable-background:new 0 0 30.552 29.635;" xml:space="preserve"><g><path d="M0.838,15.007c-1.157,0.607-1.109,1.496,0.104,1.976l3.594,1.422c1.214,0.482,3.051,0.219,4.08-0.584L24.223,5.513   c1.026-0.807,1.136-0.688,0.245,0.266L12.13,18.985c-0.894,0.951-0.63,2.119,0.588,2.59l0.421,0.164   c1.218,0.471,3.203,1.262,4.413,1.754l3.986,1.623c1.211,0.492,2.505-0.088,2.849-1.348l6.075-22.33   c0.343-1.26-0.323-1.795-1.48-1.189L0.838,15.007z"></path><path d="M10.701,29.626c-0.071,0.213,2.458-3.662,2.458-3.662c0.715-1.092,0.309-2.395-0.899-2.889l-2.758-1.129   c-1.208-0.494-1.787,0.086-1.287,1.293C8.215,23.239,10.774,29.407,10.701,29.626z"></path></g></svg>